<svg xmlns="http://www.w3.org/2000/svg" xmlns:xlink="http://www.w3.org/1999/xlink" width="566" zoomAndPan="magnify" viewBox="0 0 425.25 708.749983" height="944" preserveAspectRatio="xMidYMid meet" version="1.0"><defs><g/><clipPath id="19ed9d9e36"><path d="M 191 196 L 358 196 L 358 510 L 191 510 Z M 191 196 " clip-rule="nonzero"/></clipPath><clipPath id="6ca21c97bc"><path d="M 221.457031 178.777344 L 383.285156 230.683594 L 284.046875 540.082031 L 122.21875 488.179688 Z M 221.457031 178.777344 " clip-rule="nonzero"/></clipPath><clipPath id="a72c17259c"><path d="M 221.457031 178.777344 L 383.285156 230.683594 L 284.046875 540.082031 L 122.21875 488.179688 Z M 221.457031 178.777344 " clip-rule="nonzero"/></clipPath></defs><g fill="#010101" fill-opacity="1"><g transform="translate(24.189245, 498.231103)"><g><path d="M 133.71875 -16.375 C 133.71875 -14.851562 133.679688 -13.332031 133.609375 -11.8125 C 133.546875 -10.289062 133.441406 -8.703125 133.296875 -7.046875 C 133.160156 -6.078125 133.054688 -5.109375 132.984375 -4.140625 C 132.921875 -3.171875 132.890625 -2.132812 132.890625 -1.03125 C 132.191406 0.34375 131.082031 1.304688 129.5625 1.859375 C 128.050781 2.410156 126.566406 2.828125 125.109375 3.109375 C 123.660156 3.390625 122.660156 4.007812 122.109375 4.96875 C 121.003906 4.96875 120.140625 4.726562 119.515625 4.25 C 118.890625 3.769531 118.367188 3.25 117.953125 2.6875 C 117.679688 2.28125 117.375 1.9375 117.03125 1.65625 C 116.6875 1.382812 116.238281 1.316406 115.6875 1.453125 C 110.84375 -2.554688 106.207031 -6.875 101.78125 -11.5 C 97.363281 -16.132812 92.835938 -20.59375 88.203125 -24.875 C 83.578125 -29.15625 78.363281 -32.816406 72.5625 -35.859375 C 71.175781 -36.554688 70.34375 -37.835938 70.0625 -39.703125 C 69.789062 -41.566406 68.757812 -42.984375 66.96875 -43.953125 C 68.625 -46.023438 69.898438 -47.195312 70.796875 -47.46875 C 71.691406 -47.75 72.378906 -48.164062 72.859375 -48.71875 C 73.347656 -49.269531 73.867188 -50.722656 74.421875 -53.078125 C 75.671875 -52.796875 76.847656 -53.066406 77.953125 -53.890625 C 79.054688 -54.722656 80.226562 -55.765625 81.46875 -57.015625 C 82.988281 -58.390625 84.644531 -59.769531 86.4375 -61.15625 C 88.238281 -62.539062 90.523438 -63.234375 93.296875 -63.234375 C 96.472656 -65.023438 99.820312 -66.472656 103.34375 -67.578125 C 106.863281 -68.691406 110.5625 -68.070312 114.4375 -65.71875 C 114.707031 -66.40625 114.773438 -67.195312 114.640625 -68.09375 C 114.503906 -69 114.367188 -69.9375 114.234375 -70.90625 C 113.953125 -71.875 113.8125 -72.5625 113.8125 -72.96875 C 113.539062 -75.039062 113.4375 -77.179688 113.5 -79.390625 C 113.570312 -81.609375 113.675781 -83.753906 113.8125 -85.828125 C 113.8125 -87.347656 113.84375 -88.867188 113.90625 -90.390625 C 113.976562 -91.910156 114.015625 -93.429688 114.015625 -94.953125 C 114.015625 -96.472656 113.945312 -97.992188 113.8125 -99.515625 C 113.675781 -101.035156 113.539062 -102.554688 113.40625 -104.078125 C 113.125 -107.253906 112.878906 -110.460938 112.671875 -113.703125 C 112.460938 -116.953125 112.707031 -120.097656 113.40625 -123.140625 C 112.570312 -123.835938 112.082031 -124.84375 111.9375 -126.15625 C 111.800781 -127.46875 111.597656 -128.609375 111.328125 -129.578125 C 106.210938 -125.566406 101.789062 -120.898438 98.0625 -115.578125 C 94.332031 -110.253906 90.460938 -104.757812 86.453125 -99.09375 C 82.304688 -93.425781 78.085938 -87.691406 73.796875 -81.890625 C 69.515625 -76.085938 64.816406 -70.695312 59.703125 -65.71875 C 59.566406 -65.164062 58.703125 -63.578125 57.109375 -60.953125 C 55.523438 -58.328125 53.660156 -55.421875 51.515625 -52.234375 C 49.367188 -49.054688 47.394531 -46.328125 45.59375 -44.046875 C 43.800781 -41.773438 42.628906 -40.640625 42.078125 -40.640625 C 38.898438 -34.140625 34.753906 -27.503906 29.640625 -20.734375 C 24.523438 -13.960938 19.34375 -7.671875 14.09375 -1.859375 C 13.539062 -2.003906 13.054688 -2.003906 12.640625 -1.859375 C 12.234375 -1.722656 11.890625 -1.585938 11.609375 -1.453125 C 11.054688 -1.316406 10.535156 -1.210938 10.046875 -1.140625 C 9.566406 -1.066406 8.984375 -1.101562 8.296875 -1.25 C 8.015625 -1.9375 7.875 -2.488281 7.875 -2.90625 C 7.875 -3.320312 7.53125 -3.597656 6.84375 -3.734375 C 7.8125 -8.984375 9.675781 -13.613281 12.4375 -17.625 C 15.195312 -21.632812 18.171875 -25.570312 21.359375 -29.4375 C 21.910156 -31.644531 22.769531 -33.441406 23.9375 -34.828125 C 25.113281 -36.210938 26.289062 -37.59375 27.46875 -38.96875 C 28.644531 -40.351562 29.441406 -42.082031 29.859375 -44.15625 C 30.816406 -45.257812 32.332031 -47.191406 34.40625 -49.953125 C 36.488281 -52.722656 38.703125 -55.765625 41.046875 -59.078125 C 43.398438 -62.398438 45.472656 -65.546875 47.265625 -68.515625 C 49.066406 -71.484375 50.101562 -73.59375 50.375 -74.84375 C 51.476562 -74.425781 52.304688 -74.769531 52.859375 -75.875 C 53.410156 -76.976562 53.550781 -77.601562 53.28125 -77.75 C 57.84375 -82.300781 62.265625 -88.3125 66.546875 -95.78125 C 66.960938 -96.050781 67.445312 -96.117188 68 -95.984375 C 68.269531 -95.984375 68.476562 -95.984375 68.625 -95.984375 C 68.476562 -96.816406 68.578125 -97.507812 68.921875 -98.0625 C 69.273438 -98.613281 69.660156 -99.097656 70.078125 -99.515625 C 70.628906 -100.066406 71.144531 -100.648438 71.625 -101.265625 C 72.113281 -101.890625 72.425781 -102.753906 72.5625 -103.859375 C 75.738281 -106.628906 79.332031 -110.742188 83.34375 -116.203125 C 87.351562 -121.660156 91.289062 -126.597656 95.15625 -131.015625 C 95.289062 -131.015625 95.5 -130.945312 95.78125 -130.8125 C 96.195312 -130.539062 96.609375 -130.40625 97.015625 -130.40625 C 97.429688 -130.40625 97.640625 -131.023438 97.640625 -132.265625 C 98.335938 -134.203125 99.820312 -136.101562 102.09375 -137.96875 C 104.375 -139.832031 106.484375 -141.382812 108.421875 -142.625 C 111.597656 -142.488281 114.640625 -142.28125 117.546875 -142 C 120.453125 -141.726562 123.144531 -140.414062 125.625 -138.0625 C 125.488281 -136.6875 125.554688 -135.546875 125.828125 -134.640625 C 126.109375 -133.742188 126.457031 -132.882812 126.875 -132.0625 C 127.289062 -130.957031 127.632812 -129.710938 127.90625 -128.328125 C 128.1875 -126.941406 127.910156 -125.003906 127.078125 -122.515625 C 127.628906 -121.960938 128.078125 -121.34375 128.421875 -120.65625 C 128.773438 -119.96875 128.601562 -119.140625 127.90625 -118.171875 C 128.320312 -117.753906 128.632812 -116.300781 128.84375 -113.8125 C 129.050781 -111.320312 129.222656 -108.488281 129.359375 -105.3125 C 129.503906 -102.132812 129.503906 -99.265625 129.359375 -96.703125 C 129.222656 -94.148438 129.015625 -92.738281 128.734375 -92.46875 C 129.148438 -90.25 129.425781 -87.410156 129.5625 -83.953125 C 129.707031 -80.503906 130.265625 -77.953125 131.234375 -76.296875 C 130.398438 -74.628906 129.984375 -73 129.984375 -71.40625 C 129.984375 -69.820312 130.125 -68.269531 130.40625 -66.75 C 130.539062 -65.375 130.640625 -63.957031 130.703125 -62.5 C 130.773438 -61.050781 130.535156 -59.632812 129.984375 -58.25 C 130.117188 -58.25 130.359375 -58.210938 130.703125 -58.140625 C 131.054688 -58.078125 131.507812 -57.976562 132.0625 -57.84375 C 131.507812 -57.007812 131.195312 -56.28125 131.125 -55.65625 C 131.050781 -55.039062 131.085938 -54.457031 131.234375 -53.90625 C 131.367188 -53.351562 131.398438 -52.832031 131.328125 -52.34375 C 131.265625 -51.863281 130.957031 -51.273438 130.40625 -50.578125 C 130.957031 -47.816406 131.472656 -44.363281 131.953125 -40.21875 C 132.441406 -36.070312 132.820312 -31.851562 133.09375 -27.5625 C 133.375 -23.28125 133.582031 -19.550781 133.71875 -16.375 Z M 118.171875 -27.359375 C 117.335938 -28.472656 116.882812 -29.890625 116.8125 -31.609375 C 116.75 -33.335938 116.785156 -35.03125 116.921875 -36.6875 C 116.921875 -37.65625 116.953125 -38.625 117.015625 -39.59375 C 117.085938 -40.5625 117.054688 -41.460938 116.921875 -42.296875 C 116.785156 -43.117188 116.472656 -44.289062 115.984375 -45.8125 C 115.503906 -47.332031 114.914062 -48.644531 114.21875 -49.75 C 113.53125 -50.851562 112.773438 -51.203125 111.953125 -50.796875 C 108.492188 -49.128906 105.242188 -46.984375 102.203125 -44.359375 C 99.160156 -41.734375 96.050781 -39.316406 92.875 -37.109375 C 93.425781 -36.273438 93.425781 -35.238281 92.875 -34 L 92.875 -33.578125 C 96.46875 -29.984375 100.234375 -26.53125 104.171875 -23.21875 C 108.109375 -19.90625 112.425781 -16.863281 117.125 -14.09375 C 117.40625 -15.195312 117.546875 -16.265625 117.546875 -17.296875 C 117.546875 -18.335938 117.476562 -19.34375 117.34375 -20.3125 C 117.195312 -21.5625 117.125 -22.769531 117.125 -23.9375 C 117.125 -25.113281 117.472656 -26.253906 118.171875 -27.359375 Z M 118.171875 -27.359375 "/></g></g></g><g fill="#010101" fill-opacity="1"><g transform="translate(182.567783, 498.231103)"><g/></g></g><g fill="#010101" fill-opacity="1"><g transform="translate(234.393227, 498.231103)"><g><path d="M 149.890625 -83.34375 C 149.742188 -82.925781 149.429688 -82.75 148.953125 -82.8125 C 148.472656 -82.882812 148.234375 -82.644531 148.234375 -82.09375 C 149.753906 -81.269531 150.546875 -80.0625 150.609375 -78.46875 C 150.679688 -76.875 150.367188 -75.039062 149.671875 -72.96875 C 148.429688 -69.519531 146.5 -65.960938 143.875 -62.296875 C 141.25 -58.628906 139.3125 -56.035156 138.0625 -54.515625 C 138.207031 -53.140625 137.929688 -52.101562 137.234375 -51.40625 C 136.546875 -50.71875 135.785156 -50.164062 134.953125 -49.75 C 134.816406 -49.613281 134.75 -49.546875 134.75 -49.546875 C 135.03125 -48.992188 135.171875 -48.375 135.171875 -47.6875 C 133.367188 -46.570312 131.707031 -45.289062 130.1875 -43.84375 C 128.664062 -42.394531 127.351562 -40.703125 126.25 -38.765625 L 123.34375 -38.765625 C 123.488281 -38.210938 123.734375 -37.867188 124.078125 -37.734375 C 124.421875 -37.597656 124.59375 -37.53125 124.59375 -37.53125 C 122.25 -35.726562 118.929688 -33.6875 114.640625 -31.40625 C 110.359375 -29.125 106.695312 -27.429688 103.65625 -26.328125 C 104.207031 -25.492188 104.238281 -24.90625 103.75 -24.5625 C 103.269531 -24.21875 102.753906 -23.976562 102.203125 -23.84375 C 101.097656 -23.5625 100.476562 -23.285156 100.34375 -23.015625 C 99.789062 -23.285156 99.992188 -23.695312 100.953125 -24.25 C 101.921875 -24.800781 102.679688 -25.148438 103.234375 -25.296875 C 102.828125 -25.984375 102.414062 -26.222656 102 -26.015625 C 101.582031 -25.804688 101.164062 -25.492188 100.75 -25.078125 C 100.332031 -24.671875 99.914062 -24.328125 99.5 -24.046875 C 99.09375 -23.773438 98.613281 -23.773438 98.0625 -24.046875 C 98.332031 -23.078125 97.984375 -21.9375 97.015625 -20.625 C 96.054688 -19.3125 95.09375 -19 94.125 -19.6875 C 93.15625 -18.03125 92.046875 -16.992188 90.796875 -16.578125 C 89.554688 -16.171875 88.59375 -15.691406 87.90625 -15.140625 C 87.625 -14.722656 87.273438 -14.410156 86.859375 -14.203125 C 86.441406 -13.992188 86.03125 -13.820312 85.625 -13.6875 C 85.207031 -13.539062 84.828125 -13.328125 84.484375 -13.046875 C 84.140625 -12.773438 83.96875 -12.296875 83.96875 -11.609375 C 83.6875 -11.472656 83.335938 -11.472656 82.921875 -11.609375 C 82.234375 -11.609375 81.820312 -11.265625 81.6875 -10.578125 C 81.132812 -10.847656 80.441406 -10.847656 79.609375 -10.578125 C 79.328125 -10.429688 79.046875 -10.359375 78.765625 -10.359375 C 78.492188 -10.359375 78.15625 -10.773438 77.75 -11.609375 C 77.050781 -11.054688 76.664062 -10.46875 76.59375 -9.84375 C 76.53125 -9.226562 76.566406 -8.640625 76.703125 -8.078125 C 76.703125 -7.390625 76.703125 -6.910156 76.703125 -6.640625 C 76.015625 -6.773438 75.320312 -6.671875 74.625 -6.328125 C 73.9375 -5.984375 73.382812 -5.601562 72.96875 -5.1875 C 72.832031 -5.039062 72.765625 -4.96875 72.765625 -4.96875 C 72.347656 -5.113281 72.242188 -5.320312 72.453125 -5.59375 C 72.660156 -5.875 72.765625 -6.015625 72.765625 -6.015625 C 72.078125 -6.015625 71.25 -5.457031 70.28125 -4.34375 C 69.3125 -3.238281 68.273438 -2.6875 67.171875 -2.6875 C 67.171875 -2.6875 67.273438 -2.925781 67.484375 -3.40625 C 67.691406 -3.894531 67.585938 -4.210938 67.171875 -4.359375 C 66.617188 -3.804688 65.992188 -3.53125 65.296875 -3.53125 C 64.609375 -3.53125 63.921875 -3.53125 63.234375 -3.53125 C 62.398438 -3.664062 61.566406 -3.695312 60.734375 -3.625 C 59.910156 -3.5625 59.222656 -3.046875 58.671875 -2.078125 C 57.703125 -2.628906 56.5625 -2.867188 55.25 -2.796875 C 53.9375 -2.722656 52.726562 -2.550781 51.625 -2.28125 C 50.65625 -2.144531 49.789062 -2.003906 49.03125 -1.859375 C 48.269531 -1.722656 47.679688 -1.796875 47.265625 -2.078125 C 46.710938 -1.796875 46.296875 -1.34375 46.015625 -0.71875 C 45.742188 -0.101562 45.46875 0.550781 45.1875 1.25 C 44.78125 0.832031 44.367188 0.585938 43.953125 0.515625 C 43.535156 0.453125 43.1875 0.488281 42.90625 0.625 C 42.351562 0.625 41.941406 0.625 41.671875 0.625 C 40.703125 -0.894531 39.25 -1.789062 37.3125 -2.0625 C 35.375 -2.34375 33.851562 -3.3125 32.75 -4.96875 C 32.195312 -4.007812 31.644531 -3.390625 31.09375 -3.109375 C 30.539062 -2.828125 29.921875 -2.6875 29.234375 -2.6875 C 27.023438 -8.21875 25.882812 -13.953125 25.8125 -19.890625 C 25.738281 -25.835938 26.289062 -31.882812 27.46875 -38.03125 C 28.644531 -44.1875 29.851562 -50.164062 31.09375 -55.96875 C 31.644531 -57.90625 32.128906 -59.84375 32.546875 -61.78125 C 32.960938 -63.71875 33.378906 -65.648438 33.796875 -67.578125 C 35.316406 -75.179688 36.972656 -82.503906 38.765625 -89.546875 C 40.566406 -96.597656 42.296875 -103.515625 43.953125 -110.296875 C 44.921875 -110.847656 45.539062 -111.707031 45.8125 -112.875 C 46.09375 -114.050781 46.785156 -114.914062 47.890625 -115.46875 C 49.960938 -113.257812 52.242188 -112.15625 54.734375 -112.15625 C 57.222656 -112.15625 59.429688 -111.738281 61.359375 -110.90625 C 57.359375 -100.40625 54.078125 -88.625 51.515625 -75.5625 C 48.960938 -62.5 46.648438 -49.472656 44.578125 -36.484375 C 44.023438 -33.023438 43.570312 -29.082031 43.21875 -24.65625 C 42.875 -20.238281 42.910156 -16.304688 43.328125 -12.859375 C 43.742188 -11.609375 44.398438 -10.945312 45.296875 -10.875 C 46.191406 -10.8125 46.710938 -10.160156 46.859375 -8.921875 C 51.140625 -9.328125 55.003906 -10.460938 58.453125 -12.328125 C 61.910156 -14.203125 65.160156 -16.035156 68.203125 -17.828125 C 69.453125 -18.515625 70.9375 -19.171875 72.65625 -19.796875 C 74.382812 -20.421875 75.734375 -21.078125 76.703125 -21.765625 C 81.816406 -25.085938 87.140625 -28.820312 92.671875 -32.96875 C 98.203125 -37.113281 103.59375 -41.460938 108.84375 -46.015625 C 111.738281 -48.503906 114.5 -51.269531 117.125 -54.3125 C 119.757812 -57.351562 121.695312 -61.015625 122.9375 -65.296875 C 125.144531 -67.515625 126.867188 -70.003906 128.109375 -72.765625 C 129.359375 -75.523438 129.847656 -78.84375 129.578125 -82.71875 C 126.253906 -87.96875 122.035156 -92.320312 116.921875 -95.78125 C 111.804688 -99.238281 106.3125 -102.3125 100.4375 -105 C 94.5625 -107.695312 88.722656 -110.425781 82.921875 -113.1875 C 76.566406 -113.882812 69.65625 -115.472656 62.1875 -117.953125 C 54.726562 -120.441406 47.128906 -123 39.390625 -125.625 C 34.691406 -127.144531 29.921875 -128.390625 25.078125 -129.359375 C 20.242188 -130.328125 16.238281 -132.054688 13.0625 -134.546875 C 16.789062 -135.929688 21.109375 -136.691406 26.015625 -136.828125 C 30.921875 -136.960938 35.796875 -136.753906 40.640625 -136.203125 C 41.046875 -136.203125 41.59375 -135.925781 42.28125 -135.375 C 42.976562 -134.820312 43.535156 -134.546875 43.953125 -134.546875 C 45.609375 -134.546875 47.609375 -134.472656 49.953125 -134.328125 C 52.304688 -134.191406 54.625 -133.882812 56.90625 -133.40625 C 59.1875 -132.925781 60.878906 -131.992188 61.984375 -130.609375 C 62.398438 -131.160156 62.953125 -131.367188 63.640625 -131.234375 C 64.335938 -131.085938 64.890625 -131.222656 65.296875 -131.640625 C 65.578125 -131.640625 65.75 -131.429688 65.8125 -131.015625 C 65.882812 -130.609375 65.921875 -130.265625 65.921875 -129.984375 C 66.753906 -129.847656 67.171875 -130.265625 67.171875 -131.234375 C 70.347656 -129.710938 73.695312 -128.394531 77.21875 -127.28125 C 80.75 -126.175781 84.101562 -124.660156 87.28125 -122.734375 C 88.664062 -123.554688 90.253906 -123.585938 92.046875 -122.828125 C 93.835938 -122.066406 95.769531 -121.132812 97.84375 -120.03125 C 99.644531 -119.0625 101.582031 -118.09375 103.65625 -117.125 C 105.726562 -116.164062 107.800781 -115.613281 109.875 -115.46875 C 109.457031 -114.644531 109.835938 -113.921875 111.015625 -113.296875 C 112.191406 -112.671875 113.332031 -112.632812 114.4375 -113.1875 C 114.4375 -112.5 114.570312 -112.015625 114.84375 -111.734375 C 115.125 -111.460938 115.472656 -111.257812 115.890625 -111.125 C 116.160156 -110.976562 116.429688 -110.765625 116.703125 -110.484375 C 116.984375 -110.210938 117.125 -109.800781 117.125 -109.25 C 119.0625 -109.394531 120.441406 -109.050781 121.265625 -108.21875 C 122.097656 -107.382812 122.789062 -106.414062 123.34375 -105.3125 C 124.59375 -103.519531 126.390625 -101.929688 128.734375 -100.546875 C 131.085938 -99.160156 133.265625 -97.878906 135.265625 -96.703125 C 137.273438 -95.535156 138.414062 -94.191406 138.6875 -92.671875 C 140.207031 -92.390625 140.96875 -91.351562 140.96875 -89.5625 C 141.113281 -89.5625 141.390625 -89.5625 141.796875 -89.5625 C 142.210938 -89.5625 142.660156 -89.488281 143.140625 -89.34375 C 143.628906 -89.207031 143.804688 -88.519531 143.671875 -87.28125 C 143.941406 -87.28125 144.148438 -87.414062 144.296875 -87.6875 C 144.566406 -88.238281 144.910156 -88.445312 145.328125 -88.3125 C 145.597656 -86.789062 146.21875 -85.785156 147.1875 -85.296875 C 148.15625 -84.816406 149.054688 -84.164062 149.890625 -83.34375 Z M 46.859375 -108.015625 C 46.710938 -106.898438 46.46875 -105.753906 46.125 -104.578125 C 45.78125 -103.410156 45.398438 -102.34375 44.984375 -101.375 C 44.429688 -99.851562 43.984375 -98.46875 43.640625 -97.21875 C 43.296875 -95.976562 43.398438 -94.875 43.953125 -93.90625 C 44.085938 -94.875 44.328125 -95.84375 44.671875 -96.8125 C 45.015625 -97.78125 45.394531 -98.75 45.8125 -99.71875 C 46.363281 -101.375 46.847656 -102.992188 47.265625 -104.578125 C 47.679688 -106.171875 47.546875 -107.316406 46.859375 -108.015625 Z M 75.46875 -9.953125 C 75.320312 -9.953125 75.113281 -9.8125 74.84375 -9.53125 C 74.289062 -9.257812 73.738281 -9.191406 73.1875 -9.328125 C 73.1875 -9.328125 73.1875 -9.257812 73.1875 -9.125 C 73.320312 -8.707031 73.492188 -8.222656 73.703125 -7.671875 C 73.910156 -7.117188 74.359375 -6.910156 75.046875 -7.046875 C 75.179688 -7.597656 75.109375 -8.007812 74.828125 -8.28125 C 74.554688 -8.5625 74.421875 -8.703125 74.421875 -8.703125 C 74.835938 -8.703125 75.179688 -8.804688 75.453125 -9.015625 C 75.734375 -9.222656 75.738281 -9.535156 75.46875 -9.953125 Z M 75.46875 -9.953125 "/></g></g></g><g clip-path="url(#19ed9d9e36)"><g clip-path="url(#6ca21c97bc)"><g clip-path="url(#a72c17259c)"><path fill="#ff5757" d="M 328.21875 317.527344 C 333.949219 317.835938 342.621094 319.890625 349.308594 319.484375 C 352.753906 319.203125 355.777344 316.820312 356.59375 313.367188 C 358.1875 306.808594 357.371094 298.675781 356.136719 292.519531 C 354.558594 284.945312 351.871094 280.148438 353.757812 272.445312 C 355.5625 265.226562 359.71875 258.398438 352.9375 252.503906 C 345.691406 246.246094 335.503906 248.007812 327.902344 252.855469 C 325.589844 254.375 313.839844 265.109375 308.621094 271.160156 C 308.253906 271.625 307.527344 271.390625 307.410156 270.84375 C 305.332031 260.046875 318.234375 246.183594 318.707031 235.621094 C 319.019531 228.289062 313.78125 225.296875 308.324219 222.089844 C 301.71875 218.148438 295.515625 212.953125 288.984375 208.089844 C 282.789062 203.550781 276.804688 196.527344 268.875 196.027344 C 262.859375 195.699219 256.285156 198.472656 250.367188 199.199219 C 241.996094 200.304688 240.511719 201.066406 238.136719 210.289062 C 235.488281 220.371094 239.199219 228.558594 242.117188 238.09375 C 245.125 247.804688 243.136719 258.097656 245.410156 267.136719 C 242.53125 260.894531 243.019531 253.46875 240.726562 246.976562 C 239.070312 242.144531 236.398438 238.886719 233.695312 234.59375 C 230.722656 229.777344 229.238281 224.855469 227.421875 219.609375 C 225.742188 214.625 225.257812 208.636719 219.871094 211.574219 C 216.773438 213.277344 212.042969 221.890625 209.863281 225.054688 C 207.46875 228.65625 204.246094 233.019531 203.816406 237.542969 C 203.226562 243.476562 207.808594 247.132812 210.191406 251.976562 C 215.941406 263.589844 203.359375 280.324219 213.820312 289.507812 C 219.339844 294.339844 228.8125 293.441406 235.605469 294.527344 C 239.9375 295.117188 244.316406 296.230469 248.117188 298.46875 C 251.496094 300.425781 254.007812 303.273438 255.914062 306.652344 C 258.238281 310.535156 257.285156 313.507812 254.382812 316.875 C 253.28125 318.269531 252.019531 319.472656 250.652344 320.78125 C 248.828125 322.601562 246.894531 324.3125 245.050781 326.199219 C 244.617188 326.644531 244.164062 327.152344 243.730469 327.597656 C 243.296875 328.042969 242.90625 328.574219 242.472656 329.015625 C 241.648438 329.992188 240.828125 330.964844 240.070312 331.960938 C 238.425781 333.914062 236.933594 335.839844 235.417969 337.832031 C 232.371094 341.882812 229.519531 345.996094 226.890625 350.328125 C 224.242188 354.726562 221.789062 359.1875 219.648438 363.820312 C 217.507812 368.453125 215.429688 373.109375 213.816406 377.910156 C 212.136719 382.691406 210.589844 387.515625 209.21875 392.25 C 208.835938 393.441406 208.519531 394.648438 208.183594 395.925781 C 207.871094 397.136719 207.488281 398.328125 207.152344 399.605469 L 206.203125 403.234375 L 205.257812 406.867188 C 204.941406 408.078125 204.628906 409.289062 204.378906 410.519531 C 204.0625 411.730469 203.8125 412.964844 203.5 414.175781 C 202.933594 416.617188 202.367188 419.058594 201.9375 421.542969 C 200.871094 426.449219 200.027344 431.355469 199.164062 436.324219 C 197.085938 448.484375 195.554688 460.746094 194.09375 473.03125 C 192.855469 483.710938 191.835938 494.390625 191.386719 505.105469 C 191.207031 510.441406 193.757812 510.894531 193.917969 505.625 C 194.296875 494.667969 195.292969 483.839844 196.574219 473.027344 C 197.214844 467.621094 197.988281 462.257812 198.847656 456.847656 C 199.707031 451.4375 200.699219 446.074219 201.691406 440.707031 C 202.753906 435.582031 203.75 430.433594 204.875 425.328125 C 206.003906 420.226562 207.128906 415.121094 208.457031 410.078125 C 211.039062 399.976562 213.777344 389.851562 217.199219 380.089844 C 218.941406 375.109375 220.644531 370.261719 222.5625 365.410156 C 224.460938 360.628906 226.691406 355.949219 229.363281 351.484375 C 231.882812 347.265625 234.625 343.261719 237.652344 339.277344 C 239.164062 337.285156 240.636719 335.425781 242.195312 333.519531 C 242.953125 332.523438 243.753906 331.613281 244.574219 330.636719 L 245.183594 329.886719 L 245.765625 329.199219 C 246.113281 328.800781 246.570312 328.289062 247.046875 327.933594 C 248.890625 326.046875 250.847656 324.269531 252.777344 322.335938 C 255.359375 319.738281 257.253906 316.339844 260.277344 314.175781 C 263.695312 311.699219 267.785156 312.355469 271.699219 312.882812 C 280.378906 313.992188 288.96875 316.527344 297.730469 317.152344 C 307.835938 317.914062 318.050781 316.964844 328.21875 317.527344 Z M 328.21875 317.527344 " fill-opacity="1" fill-rule="nonzero"/></g></g></g></svg>