<svg xmlns="http://www.w3.org/2000/svg" xmlns:xlink="http://www.w3.org/1999/xlink" width="566" zoomAndPan="magnify" viewBox="0 0 425.25 708.749983" height="944" preserveAspectRatio="xMidYMid meet" version="1.0"><defs><clipPath id="5edbdc6a95"><path d="M 189 193 L 269 193 L 269 680 L 189 680 Z M 189 193 " clip-rule="nonzero"/></clipPath><clipPath id="cc08a92c85"><path d="M 185.082031 679.273438 L 201.308594 191.40625 L 272.394531 193.769531 L 256.164062 681.640625 Z M 185.082031 679.273438 " clip-rule="nonzero"/></clipPath><clipPath id="b94aceda1c"><path d="M 185.082031 679.273438 L 201.308594 191.40625 L 272.394531 193.769531 L 256.164062 681.640625 Z M 185.082031 679.273438 " clip-rule="nonzero"/></clipPath><clipPath id="7a7d8dafef"><path d="M 119 27 L 338.953125 27 L 338.953125 258 L 119 258 Z M 119 27 " clip-rule="nonzero"/></clipPath><clipPath id="855f6f292d"><path d="M 85.492188 115 L 212 115 L 212 223 L 85.492188 223 Z M 85.492188 115 " clip-rule="nonzero"/></clipPath></defs><g clip-path="url(#5edbdc6a95)"><g clip-path="url(#cc08a92c85)"><g clip-path="url(#b94aceda1c)"><path fill="#0c4904" d="M 220.757812 679.414062 C 219.300781 677.203125 217.957031 674.914062 216.667969 672.597656 C 215.378906 670.277344 214.15625 667.921875 212.972656 665.546875 C 210.613281 660.785156 208.441406 655.929688 206.457031 650.992188 C 202.460938 641.125 199.183594 630.953125 196.550781 620.601562 C 195.238281 615.425781 194.113281 610.199219 193.136719 604.9375 C 192.164062 599.675781 191.390625 594.375 190.761719 589.054688 C 190.621094 587.722656 190.460938 586.390625 190.328125 585.058594 L 189.960938 581.050781 C 189.765625 578.378906 189.566406 575.703125 189.449219 573.019531 L 189.351562 571.011719 L 189.289062 569 C 189.253906 567.65625 189.1875 566.316406 189.1875 564.972656 L 189.148438 560.945312 L 189.199219 556.914062 C 189.320312 551.542969 189.574219 546.171875 190.03125 540.8125 C 190.132812 539.46875 190.285156 538.132812 190.414062 536.796875 L 190.621094 534.789062 L 190.867188 532.785156 C 191.035156 531.449219 191.1875 530.113281 191.371094 528.777344 L 191.957031 524.785156 C 192.792969 519.46875 193.722656 514.160156 194.933594 508.910156 L 195.367188 506.9375 C 195.511719 506.28125 195.683594 505.628906 195.839844 504.976562 L 196.800781 501.050781 C 197.140625 499.746094 197.5 498.449219 197.847656 497.148438 L 198.375 495.199219 C 198.554688 494.550781 198.753906 493.90625 198.941406 493.261719 C 201.949219 482.914062 205.597656 472.753906 209.886719 462.878906 L 211.503906 459.175781 C 212.054688 457.949219 212.636719 456.734375 213.203125 455.515625 L 214.054688 453.683594 C 214.335938 453.074219 214.625 452.464844 214.925781 451.867188 L 216.722656 448.25 L 217.617188 446.441406 L 218.5625 444.660156 L 220.445312 441.09375 L 220.917969 440.203125 L 221.410156 439.320312 L 224.363281 434.039062 C 234.695312 416.015625 243.246094 396.984375 249.363281 377.160156 C 249.554688 376.539062 249.761719 375.925781 249.941406 375.300781 L 250.484375 373.4375 C 250.84375 372.191406 251.214844 370.949219 251.566406 369.699219 L 252.5625 365.941406 C 252.726562 365.3125 252.90625 364.691406 253.054688 364.058594 L 253.511719 362.167969 C 254.757812 357.136719 255.804688 352.054688 256.75 346.949219 C 258.582031 336.734375 259.800781 326.402344 260.371094 316.015625 C 260.925781 305.636719 260.878906 295.199219 260.164062 284.792969 C 259.816406 279.589844 259.289062 274.394531 258.632812 269.210938 C 257.980469 264.027344 257.148438 258.859375 256.175781 253.714844 C 255.214844 248.570312 254.074219 243.453125 252.800781 238.363281 C 251.53125 233.273438 250.09375 228.21875 248.511719 223.203125 C 246.921875 218.191406 245.1875 213.21875 243.269531 208.3125 C 242.316406 205.855469 241.3125 203.414062 240.261719 200.992188 C 239.738281 199.78125 239.195312 198.578125 238.640625 197.378906 C 238.085938 196.179688 237.519531 194.984375 236.910156 193.8125 C 238.367188 196.023438 239.707031 198.3125 240.996094 200.628906 C 242.289062 202.945312 243.511719 205.304688 244.699219 207.679688 C 247.054688 212.4375 249.226562 217.296875 251.214844 222.230469 C 255.210938 232.101562 258.492188 242.269531 261.125 252.621094 C 262.4375 257.800781 263.566406 263.027344 264.539062 268.289062 C 265.511719 273.550781 266.285156 278.851562 266.914062 284.171875 C 267.554688 289.496094 267.96875 294.84375 268.226562 300.207031 L 268.328125 302.214844 L 268.390625 304.226562 C 268.425781 305.570312 268.492188 306.910156 268.492188 308.253906 L 268.53125 312.28125 L 268.476562 316.3125 C 268.355469 321.683594 268.105469 327.058594 267.648438 332.417969 C 267.550781 333.761719 267.390625 335.097656 267.261719 336.433594 L 267.058594 338.445312 L 266.8125 340.445312 C 266.644531 341.78125 266.488281 343.117188 266.304688 344.449219 L 265.722656 348.445312 C 264.886719 353.761719 263.949219 359.070312 262.742188 364.320312 L 262.304688 366.289062 C 262.164062 366.949219 261.992188 367.597656 261.835938 368.253906 L 260.871094 372.179688 C 260.535156 373.480469 260.175781 374.78125 259.828125 376.082031 L 259.300781 378.03125 C 259.121094 378.679688 258.921875 379.324219 258.734375 379.96875 L 257.589844 383.84375 C 257.195312 385.132812 256.765625 386.410156 256.355469 387.691406 C 255.550781 390.261719 254.621094 392.792969 253.738281 395.335938 C 253.519531 395.972656 253.285156 396.605469 253.046875 397.234375 L 252.328125 399.121094 L 251.613281 401.011719 C 251.371094 401.640625 251.136719 402.269531 250.878906 402.890625 L 249.355469 406.632812 C 249.097656 407.253906 248.851562 407.878906 248.585938 408.5 L 247.78125 410.351562 L 246.164062 414.050781 C 245.613281 415.277344 245.03125 416.492188 244.464844 417.714844 L 243.613281 419.542969 C 243.332031 420.15625 243.042969 420.765625 242.742188 421.363281 L 240.949219 424.980469 L 240.046875 426.785156 L 239.105469 428.566406 L 237.21875 432.136719 L 236.746094 433.027344 L 236.253906 433.90625 L 235.269531 435.667969 L 233.300781 439.1875 C 222.964844 457.207031 214.414062 476.242188 208.289062 496.066406 C 208.097656 496.683594 207.890625 497.300781 207.710938 497.921875 L 207.167969 499.789062 C 206.808594 501.03125 206.4375 502.277344 206.085938 503.523438 L 205.089844 507.28125 C 204.925781 507.910156 204.746094 508.535156 204.597656 509.164062 L 204.144531 511.054688 C 202.898438 516.089844 201.839844 521.171875 200.902344 526.273438 C 199.070312 536.492188 197.84375 546.824219 197.277344 557.207031 C 196.71875 567.59375 196.777344 578.027344 197.484375 588.433594 C 197.832031 593.636719 198.363281 598.832031 199.019531 604.019531 C 199.671875 609.203125 200.503906 614.367188 201.476562 619.511719 C 202.4375 624.660156 203.578125 629.777344 204.851562 634.867188 C 206.125 639.957031 207.558594 645.011719 209.144531 650.023438 C 210.738281 655.035156 212.46875 660.011719 214.390625 664.917969 C 215.34375 667.375 216.347656 669.8125 217.402344 672.234375 C 217.921875 673.449219 218.46875 674.652344 219.023438 675.847656 C 219.578125 677.046875 220.144531 678.242188 220.757812 679.414062 " fill-opacity="1" fill-rule="nonzero"/></g></g></g><g clip-path="url(#7a7d8dafef)"><path fill="#ee313a" d="M 123.125 120.46875 C 122.667969 113.070312 121.25 105.820312 119.824219 98.574219 C 119.242188 95.617188 119.050781 92.699219 119.695312 89.722656 C 120.734375 84.917969 123.175781 81.078125 127.226562 78.285156 C 131.007812 75.675781 134.546875 72.796875 137.84375 69.558594 C 141.828125 65.644531 146.386719 62.371094 150.964844 59.1875 C 155.285156 56.1875 160.347656 54.636719 165.246094 52.871094 C 170.183594 51.089844 174.902344 48.941406 179.363281 46.183594 C 181.277344 45 183.234375 43.878906 185.242188 42.878906 C 188.199219 41.402344 190.304688 38.855469 192.949219 36.980469 C 195.804688 34.949219 198.53125 32.730469 201.3125 30.589844 C 205.789062 27.144531 210.722656 26.773438 215.5 29.417969 C 222.472656 33.273438 228.785156 38.042969 233.144531 44.96875 C 235.992188 49.488281 239.75 53.289062 243.117188 57.390625 C 243.554688 57.925781 244.023438 58.675781 244.867188 58.390625 C 245.667969 58.121094 245.671875 57.253906 245.777344 56.5625 C 246.492188 51.804688 248.398438 47.613281 251.460938 43.902344 C 253.257812 41.722656 255.457031 40.25 258.191406 39.699219 C 264.792969 38.371094 271.421875 38.570312 277.511719 41.4375 C 286.210938 45.535156 295.082031 49.445312 303.066406 54.851562 C 312.621094 61.316406 320.804688 69.164062 326.058594 79.777344 C 329.175781 86.085938 332.054688 92.472656 334.667969 99.007812 C 339.324219 110.675781 339.152344 122.367188 335.59375 134.234375 C 333.757812 140.355469 330.894531 145.917969 327.222656 151.101562 C 324.824219 154.484375 322.523438 157.925781 320.519531 161.5625 C 318.453125 165.296875 315.792969 168.570312 312.679688 171.488281 C 311.039062 173.027344 309.484375 174.660156 307.941406 176.300781 C 305.839844 178.542969 303.609375 180.625 301.078125 182.375 C 300.570312 182.730469 300.007812 183.046875 299.746094 183.695312 C 300.28125 184.589844 301.179688 184.359375 301.925781 184.4375 C 304.839844 184.75 307.453125 185.839844 310.042969 187.1875 C 316.820312 190.714844 317.339844 201.777344 310.859375 206.171875 C 308.390625 207.84375 305.851562 209.398438 302.996094 210.296875 C 300.636719 211.039062 298.523438 212.164062 296.625 213.730469 C 296.140625 214.128906 295.628906 214.503906 295.101562 214.847656 C 290.078125 218.144531 285.941406 222.261719 282.460938 227.222656 C 277.25 234.640625 270.726562 240.855469 263.484375 246.304688 C 261.230469 248 258.824219 249.390625 256.117188 250.179688 C 249.605469 252.078125 242.996094 253.324219 236.175781 253.117188 C 233.390625 253.035156 230.605469 252.824219 227.816406 252.777344 C 224.023438 252.710938 220.441406 251.734375 217.347656 249.636719 C 211.574219 245.726562 205.140625 245.78125 198.640625 246.050781 C 191.222656 246.363281 184.851562 249.855469 178.359375 252.941406 C 177.054688 253.566406 175.980469 254.558594 174.917969 255.53125 C 174.050781 256.324219 173.15625 257.078125 172.054688 257.53125 C 169 258.785156 165.996094 257.378906 165.457031 254.125 C 164.675781 249.460938 165.269531 244.777344 167.863281 240.847656 C 171.4375 235.421875 175.839844 230.546875 180.988281 226.59375 C 184.679688 223.75 188.484375 221.003906 192.308594 218.304688 C 192.480469 217.113281 193.019531 216.230469 194.066406 215.515625 C 198.765625 212.304688 203.570312 209.261719 208.683594 206.773438 C 209.601562 206.328125 210.148438 205.246094 211.3125 205.308594 C 216.722656 202.921875 222.195312 200.742188 227.769531 198.742188 C 235.230469 196.0625 242.886719 194.3125 250.574219 192.578125 C 253.738281 191.863281 256.78125 190.867188 259.613281 189.25 C 262.515625 190.339844 265.179688 189.097656 266.574219 186.140625 C 271.90625 174.835938 277.089844 163.464844 283.003906 152.441406 C 286.324219 146.246094 288.679688 139.601562 291.453125 133.152344 C 292.777344 130.066406 293.089844 126.703125 293.039062 123.339844 C 292.953125 117.714844 289.242188 114.316406 283.644531 114.6875 C 279.703125 114.949219 275.765625 115.128906 271.800781 114.902344 C 269.363281 114.761719 268.066406 113.679688 267.261719 111.460938 C 265.332031 106.121094 264.03125 100.578125 262.0625 95.253906 C 261.464844 93.644531 260.878906 92.035156 260.023438 90.546875 C 259.628906 89.863281 259.179688 88.90625 258.242188 89.21875 C 257.214844 89.558594 257.625 90.59375 257.773438 91.339844 C 258.792969 96.378906 259.652344 101.445312 259.972656 106.578125 C 260.871094 121.109375 260.058594 135.546875 257.390625 149.867188 C 257.109375 151.371094 257.019531 152.898438 256.621094 154.390625 C 256.246094 155.792969 255.523438 156.820312 254.273438 157.503906 C 252.238281 157.191406 250.496094 155.914062 248.386719 155.804688 C 245.167969 155.648438 242.191406 156.320312 239.28125 157.695312 C 233.003906 160.65625 227.46875 164.832031 221.539062 168.359375 C 220.296875 169.097656 219.066406 169.804688 217.683594 170.230469 C 214.328125 171.261719 211.023438 172.386719 208.347656 174.820312 C 207.882812 175.238281 207.335938 175.613281 206.667969 175.117188 C 205.460938 174.441406 204.628906 173.390625 204.367188 172.082031 C 203.238281 166.511719 199.816406 161.910156 197.988281 156.621094 C 195.78125 150.246094 193.015625 144.078125 190.867188 137.671875 C 189.339844 133.128906 186.832031 129.039062 184.242188 125.027344 C 182.867188 122.90625 180.859375 121.582031 178.539062 120.6875 C 168.847656 116.957031 158.878906 116.144531 148.617188 117.480469 C 141.121094 118.460938 133.710938 119.808594 126.332031 121.410156 C 125.25 121.644531 123.648438 122.597656 123.125 120.46875 " fill-opacity="1" fill-rule="nonzero"/></g><g clip-path="url(#855f6f292d)"><path fill="#9d1826" d="M 123.125 120.46875 C 126.183594 120.203125 129.136719 119.402344 132.113281 118.730469 C 140.8125 116.765625 149.632812 115.53125 158.535156 115.414062 C 166.140625 115.3125 173.519531 116.921875 180.539062 119.96875 C 182.664062 120.886719 184.328125 122.296875 185.539062 124.308594 C 188.515625 129.242188 191.324219 134.226562 193.183594 139.746094 C 196.832031 150.582031 201.359375 161.082031 205.667969 171.664062 C 206.003906 172.492188 206.492188 173.261719 206.910156 174.054688 C 207.765625 174.714844 207.601562 175.40625 206.972656 176.109375 C 204.464844 178.914062 204.035156 182.339844 203.914062 185.914062 C 203.78125 189.921875 204.359375 193.820312 205.484375 197.621094 C 206.414062 200.769531 207.910156 203.640625 210.886719 205.402344 C 211.488281 205.761719 211.828125 206.199219 211.804688 206.902344 C 209.53125 207.554688 207.527344 208.703125 205.539062 209.96875 C 201.140625 212.765625 196.570312 215.292969 192.308594 218.304688 C 189.546875 217.132812 186.664062 217.445312 183.8125 217.710938 C 174.945312 218.539062 166.203125 220.285156 157.367188 221.371094 C 154.15625 221.761719 150.960938 222.261719 147.699219 222.011719 C 143.652344 221.707031 140.109375 220.363281 136.800781 217.878906 C 131.679688 214.035156 126.125 210.855469 119.875 209.136719 C 115.882812 208.042969 111.964844 206.703125 108.121094 205.179688 C 100.351562 202.09375 94.640625 196.890625 91.160156 189.101562 C 88.597656 183.371094 86.71875 177.53125 85.921875 171.304688 C 85.550781 168.449219 86.003906 165.6875 86.792969 163.039062 C 88.507812 157.253906 90.476562 151.542969 92.929688 146.019531 C 96.628906 137.683594 103.023438 131.882812 110.699219 127.390625 C 113.183594 125.933594 115.714844 124.574219 118.039062 122.859375 C 119.570312 121.730469 121.234375 120.851562 123.125 120.46875 " fill-opacity="1" fill-rule="nonzero"/></g><path fill="#262626" d="M 211.804688 206.902344 C 209.734375 206.800781 208.292969 205.648438 207.113281 204.078125 C 205.636719 202.113281 204.53125 199.960938 203.890625 197.578125 C 202.472656 192.285156 202.164062 186.921875 202.796875 181.484375 C 203.152344 178.429688 204.976562 176.21875 206.910156 174.054688 C 209.761719 171.609375 213.050781 170.097656 216.652344 169.035156 C 220.574219 167.878906 223.867188 165.378906 227.179688 163.097656 C 231.128906 160.371094 235.269531 158.023438 239.570312 155.992188 C 244.246094 153.78125 249.078125 153.378906 253.847656 155.929688 C 256.664062 156.035156 258.324219 157.75 259.628906 160.023438 C 262.167969 164.4375 265.488281 168.484375 265.90625 173.863281 C 266.207031 177.746094 265.992188 181.589844 264.917969 185.339844 C 264.136719 188.082031 262.546875 190.152344 259.617188 190.878906 C 256.070312 192.972656 252.105469 193.878906 248.144531 194.59375 C 238.820312 196.273438 229.984375 199.5625 221.058594 202.554688 C 217.820312 203.640625 214.863281 205.398438 211.804688 206.902344 " fill-opacity="1" fill-rule="nonzero"/><path fill="#9d1826" d="M 259.617188 190.878906 C 265.550781 184.03125 266.421875 174.183594 261.78125 166.34375 C 261.140625 165.257812 260.457031 164.203125 259.847656 163.097656 C 258.316406 160.308594 256.480469 157.785156 253.847656 155.929688 C 255.085938 155.078125 255.308594 153.734375 255.578125 152.398438 C 257.957031 140.699219 258.910156 128.839844 259.011719 116.945312 C 259.089844 107.742188 258.144531 98.589844 255.757812 89.644531 C 255.4375 88.441406 254.875 87.148438 256.21875 86.203125 C 257.097656 85.582031 258.484375 86.113281 259.761719 87.433594 C 260.648438 88.359375 261.214844 89.484375 261.738281 90.636719 C 263.441406 94.425781 264.675781 98.382812 265.878906 102.347656 C 266.691406 105.019531 267.632812 107.65625 268.382812 110.339844 C 269.023438 112.605469 270.460938 113.472656 272.726562 113.589844 C 276.421875 113.777344 280.09375 113.492188 283.765625 113.191406 C 287.257812 112.902344 290.109375 113.914062 292.347656 116.695312 C 293.765625 118.460938 294.492188 120.375 294.492188 122.652344 C 294.488281 127.960938 293.628906 133.058594 291.105469 137.792969 C 289.785156 140.265625 288.945312 142.9375 287.859375 145.503906 C 286.417969 148.902344 284.863281 152.253906 282.976562 155.441406 C 281.183594 158.464844 279.554688 161.570312 278.222656 164.832031 C 275.90625 170.515625 273.214844 176.011719 270.058594 181.273438 C 269.265625 182.601562 268.769531 184.035156 268.347656 185.519531 C 267.105469 189.867188 265.765625 190.867188 261.234375 190.929688 C 260.695312 190.9375 260.15625 190.894531 259.617188 190.878906 " fill-opacity="1" fill-rule="nonzero"/><path fill="#272727" d="M 242.824219 145.714844 C 242.65625 147.230469 242.476562 148.652344 241.871094 149.976562 C 241.644531 150.472656 241.339844 150.953125 240.726562 150.980469 C 240.078125 151.003906 239.804688 150.492188 239.625 149.976562 C 238.578125 146.992188 238.144531 143.890625 238.054688 140.746094 C 238.023438 139.683594 238.597656 138.820312 239.734375 138.621094 C 241 138.394531 241.777344 139.128906 242.199219 140.222656 C 242.886719 142.023438 242.703125 143.929688 242.824219 145.714844 " fill-opacity="1" fill-rule="nonzero"/><path fill="#272727" d="M 233.472656 151.644531 C 233.386719 152.15625 233.5625 152.820312 232.875 153.007812 C 232.230469 153.183594 231.890625 152.65625 231.632812 152.195312 C 229.953125 149.179688 228.855469 145.9375 228.242188 142.558594 C 227.976562 141.113281 228.695312 140.023438 229.75 139.738281 C 230.917969 139.417969 232.050781 140.144531 232.5 141.714844 C 232.816406 142.832031 232.953125 144.011719 233.050781 145.171875 C 233.238281 147.324219 233.335938 149.488281 233.472656 151.644531 " fill-opacity="1" fill-rule="nonzero"/><path fill="#282828" d="M 212.382812 157.472656 C 212.335938 158.636719 211.714844 159.042969 210.761719 158.484375 C 209.125 157.53125 207.726562 156.261719 206.835938 154.566406 C 206.15625 153.269531 206.589844 151.917969 207.71875 151.324219 C 208.75 150.777344 209.964844 151.09375 210.722656 152.265625 C 211.757812 153.871094 212.074219 155.734375 212.382812 157.472656 " fill-opacity="1" fill-rule="nonzero"/><path fill="#292929" d="M 252.660156 143.296875 C 252.269531 144.675781 251.550781 145.996094 250.144531 146.820312 C 249.722656 147.066406 249.175781 147.070312 248.921875 146.664062 C 248.058594 145.285156 248.0625 143.746094 248.441406 142.238281 C 248.777344 140.902344 249.933594 140.171875 251.035156 140.414062 C 252.148438 140.664062 252.851562 141.832031 252.660156 143.296875 " fill-opacity="1" fill-rule="nonzero"/><path fill="#282828" d="M 222.054688 153.175781 C 221.964844 154.671875 221.183594 155.097656 219.9375 154.296875 C 219.101562 153.761719 218.402344 153.046875 217.945312 152.15625 C 217.367188 151.019531 217.691406 149.875 218.664062 149.363281 C 219.625 148.863281 220.75 149.238281 221.390625 150.332031 C 221.90625 151.203125 222.050781 152.179688 222.054688 153.175781 " fill-opacity="1" fill-rule="nonzero"/><path fill="#282828" d="M 222.355469 138.523438 C 222.285156 139.085938 222.28125 139.453125 222.1875 139.796875 C 221.910156 140.84375 221.207031 141.117188 220.410156 140.414062 C 219.445312 139.5625 218.792969 138.46875 218.542969 137.199219 C 218.324219 136.109375 218.625 135.152344 219.8125 134.871094 C 220.964844 134.601562 221.738281 135.253906 222.042969 136.324219 C 222.265625 137.089844 222.277344 137.914062 222.355469 138.523438 " fill-opacity="1" fill-rule="nonzero"/><path fill="#282828" d="M 230.070312 155.765625 C 230.046875 157 229.351562 157.871094 228.4375 157.824219 C 227.40625 157.769531 226.363281 156.464844 226.472656 155.316406 C 226.570312 154.289062 227.144531 153.671875 228.203125 153.625 C 229.324219 153.578125 230.097656 154.484375 230.070312 155.765625 " fill-opacity="1" fill-rule="nonzero"/><path fill="#292929" d="M 207.683594 166.308594 C 206.578125 166.308594 205.441406 165.210938 205.410156 164.105469 C 205.386719 163.121094 206.113281 162.339844 207.015625 162.378906 C 208.03125 162.425781 208.921875 163.617188 208.914062 164.902344 C 208.90625 165.792969 208.453125 166.308594 207.683594 166.308594 " fill-opacity="1" fill-rule="nonzero"/><path fill="#262626" d="M 202.394531 168.496094 C 202.179688 169.375 201.550781 169.332031 200.917969 169.097656 C 199.117188 168.425781 197.671875 167.183594 196.179688 166.027344 C 195.179688 165.253906 194.226562 164.414062 193.578125 163.308594 C 193.019531 162.347656 193.03125 161.390625 193.933594 160.628906 C 194.738281 159.949219 195.667969 159.988281 196.417969 160.628906 C 198.839844 162.695312 200.679688 165.242188 202.300781 167.964844 C 202.386719 168.109375 202.363281 168.3125 202.394531 168.496094 " fill-opacity="1" fill-rule="nonzero"/><path fill="#282828" d="M 194.082031 186.453125 C 192.769531 186.328125 191.597656 186.101562 191.210938 184.730469 C 190.960938 183.847656 191.363281 183.136719 192.125 182.667969 C 193.296875 181.941406 194.363281 182.328125 195.359375 183.078125 C 195.644531 183.292969 195.910156 183.546875 196.136719 183.820312 C 196.546875 184.3125 196.90625 184.859375 196.609375 185.535156 C 196.320312 186.195312 195.695312 186.351562 195.050781 186.410156 C 194.695312 186.445312 194.332031 186.441406 194.082031 186.453125 " fill-opacity="1" fill-rule="nonzero"/><path fill="#282828" d="M 191.515625 173.699219 C 190.035156 173.539062 188.96875 172.484375 189.097656 171.304688 C 189.21875 170.230469 190.3125 169.488281 191.492188 169.679688 C 192.691406 169.875 193.847656 171.234375 193.761719 172.34375 C 193.6875 173.304688 192.804688 173.835938 191.515625 173.699219 " fill-opacity="1" fill-rule="nonzero"/><path fill="#282828" d="M 179.8125 176.828125 C 178.929688 176.605469 178.070312 176.371094 177.464844 175.644531 C 177.03125 175.125 176.898438 174.535156 177.203125 173.90625 C 177.5 173.28125 178.046875 173.007812 178.710938 172.992188 C 179.894531 172.964844 181.570312 174.578125 181.53125 175.773438 C 181.496094 176.933594 180.648438 176.914062 179.8125 176.828125 " fill-opacity="1" fill-rule="nonzero"/><path fill="#272727" d="M 196.625 196.246094 C 195.183594 196.226562 194.195312 195.417969 194.324219 194.394531 C 194.457031 193.363281 195.128906 192.8125 196.148438 192.757812 C 197.296875 192.695312 198.605469 193.871094 198.488281 194.890625 C 198.355469 196.058594 197.433594 196.1875 196.625 196.246094 " fill-opacity="1" fill-rule="nonzero"/><path fill="#262626" d="M 258.925781 152.78125 C 259.125 151.542969 259.46875 150.425781 260.355469 149.578125 C 261.222656 148.75 262.441406 148.667969 263.308594 149.324219 C 264.207031 150.003906 264.378906 151.105469 263.703125 152.21875 C 263.179688 153.078125 262.410156 153.714844 261.582031 154.261719 C 260.980469 154.660156 260.339844 155.078125 259.59375 154.640625 C 258.839844 154.203125 258.914062 153.441406 258.925781 152.78125 " fill-opacity="1" fill-rule="nonzero"/></svg>